<svg width="36" height="36" viewBox="0 0 36 36" fill="none" xmlns="http://www.w3.org/2000/svg">
<path d="M28.5 4.5H7.5C5.8425 4.5 4.5 5.8425 4.5 7.5V28.5C4.5 30.1575 5.8425 31.5 7.5 31.5H18.9315V21.0585H15.417V16.971H18.9315V13.9635C18.9315 10.4775 21.063 8.577 24.174 8.577C25.2225 8.574 26.2695 8.628 27.312 8.7345V12.3795H25.17C23.475 12.3795 23.145 13.1805 23.145 14.3625V16.965H27.195L26.6685 21.0525H23.121V31.5H28.5C30.1575 31.5 31.5 30.1575 31.5 28.5V7.5C31.5 5.8425 30.1575 4.5 28.5 4.5Z" fill="#ECECEC"/>
</svg>
