<svg width="36" height="36" viewBox="0 0 36 36" fill="none" xmlns="http://www.w3.org/2000/svg">
<path d="M18 3C9.7155 3 3 9.7155 3 18C3 26.2845 9.7155 33 18 33C26.2845 33 33 26.2845 33 18C33 9.7155 26.2845 3 18 3ZM18 6C24.6165 6 30 11.3835 30 18V19.5C30 21.981 27.981 24 25.5 24C24.12 24 22.8988 23.3624 22.0723 22.3799C21.0013 23.3774 19.575 24 18 24C14.691 24 12 21.309 12 18C12 14.691 14.691 12 18 12C21.309 12 24 14.691 24 18V19.5C24 20.3265 24.6735 21 25.5 21C26.3265 21 27 20.3265 27 19.5V18C27 13.0365 22.9635 9 18 9C13.0365 9 9 13.0365 9 18C9 22.9635 13.0365 27 18 27H21V30H18C11.3835 30 6 24.6165 6 18C6 11.3835 11.3835 6 18 6ZM18 15C17.2044 15 16.4413 15.3161 15.8787 15.8787C15.3161 16.4413 15 17.2044 15 18C15 18.7956 15.3161 19.5587 15.8787 20.1213C16.4413 20.6839 17.2044 21 18 21C18.7956 21 19.5587 20.6839 20.1213 20.1213C20.6839 19.5587 21 18.7956 21 18C21 17.2044 20.6839 16.4413 20.1213 15.8787C19.5587 15.3161 18.7956 15 18 15Z" fill="#ECECEC"/>
</svg>
